<?xml version="1.0" standalone="no"?><!DOCTYPE svg PUBLIC "-//W3C//DTD SVG 1.1//EN" "http://www.w3.org/Graphics/SVG/1.1/DTD/svg11.dtd"><svg width="100%" height="100%" viewBox="0 0 263 149" version="1.1" xmlns="http://www.w3.org/2000/svg" xmlns:xlink="http://www.w3.org/1999/xlink" xml:space="preserve" style="fill-rule:evenodd;clip-rule:evenodd;stroke-linejoin:round;stroke-miterlimit:1.41421;"><g><path d="M220.879,51.904l0.508,0.203c8.639,3.804 15.542,8.787 19.751,15.603c0.102,-17.017 -8.749,-30.993 -23.589,-42.935c-19.726,-11.824 -52.666,-22.58 -75.716,-24.775c0.778,12.563 5.489,23.092 13.575,31.876c7.081,-5.315 15.882,-8.465 25.417,-8.465c18.543,0 34.303,11.908 40.054,28.493" style="fill:#bbbcbf;"/><path d="M81.275,29.721l33.657,0c13.487,0 24.522,11.035 24.522,24.523c0,10.374 -6.53,19.296 -15.682,22.863l19.139,24.853l-22.182,0l-27.037,-39.863l20.545,0c4.286,0 7.853,-3.567 7.853,-7.853c0,-4.287 -3.567,-7.853 -7.853,-7.853l-24.555,0l0,55.568l-0.151,0l-16.648,0l-1.076,0l0,-72.238l9.468,0ZM0.301,29.721l17.874,0l0,27.795l29.625,0l0,-27.795l17.875,0l0,72.238l-17.875,0l0,-27.795l-29.625,0l0,27.795l-17.874,0l0,-72.238ZM241.138,67.711c-0.359,9.171 -3.459,16.837 -8.867,23.233c-8.715,10.308 -21.726,16.094 -34.688,18.898c-11.414,2.47 -22.027,2.099 -32.109,0.226c-1.196,-0.221 -2.313,-0.535 -3.492,-0.788c-0.299,-0.063 -0.63,-0.161 -0.918,-0.008c-0.228,0.121 -0.383,0.362 -0.383,0.639c0,0.447 0.304,0.602 0.65,0.772c0.772,0.381 2.29,0.979 2.69,1.139c8.092,3.243 16.762,4.83 25.912,5.048c21.915,0.519 45.799,-5.579 61.839,-21.258c14.406,-14.084 12.231,-27.774 -0.447,-42.437c-4.842,-5.601 -9.951,-10.642 -15.3,-15.18c-5.789,-4.911 -11.976,-9.325 -18.486,-13.228c14.845,11.944 23.7,25.922 23.599,42.944Z" style="fill:#808184;"/><path d="M180.826,28.087c20.826,0 37.708,16.882 37.708,37.708c0,20.825 -16.883,37.708 -37.708,37.708c-20.825,0 -37.708,-16.883 -37.708,-37.708c0,-20.827 16.883,-37.708 37.708,-37.708ZM193.361,36.049c7.468,0 13.522,6.054 13.522,13.522c0,7.469 -6.054,13.523 -13.522,13.523c-7.468,0 -13.523,-6.055 -13.523,-13.523c0,-7.468 6.055,-13.522 13.523,-13.522Z" style="fill:#47a4ad;"/><path d="M260.905,144.302l0,-0.972c-0.24,0.423 -0.56,0.726 -0.958,0.909c-0.401,0.183 -0.94,0.275 -1.62,0.275c-0.895,0 -1.564,-0.226 -2.004,-0.673c-0.44,-0.447 -0.659,-1.134 -0.659,-2.061l0,-1.434c0,-0.902 0.24,-1.585 0.722,-2.047c0.483,-0.465 1.187,-0.697 2.117,-0.697c0.577,0 1.06,0.074 1.448,0.225c0.388,0.152 0.708,0.387 0.954,0.704l0,-1.669c0,-0.916 -0.123,-1.514 -0.366,-1.797c-0.243,-0.282 -0.733,-0.423 -1.469,-0.423c-0.606,0 -1.035,0.106 -1.293,0.313c-0.254,0.212 -0.38,0.557 -0.38,1.039l0,0.507l-1.416,0l0,-0.486c0,-0.923 0.25,-1.595 0.754,-2.022c0.504,-0.426 1.3,-0.641 2.395,-0.641c1.184,0 2.001,0.225 2.452,0.676c0.451,0.451 0.676,1.275 0.676,2.473l0,7.798l-1.353,0l0,0.003ZM258.855,143.245c0.761,0 1.3,-0.169 1.617,-0.51c0.317,-0.342 0.475,-0.933 0.475,-1.779c0,-0.814 -0.134,-1.36 -0.398,-1.641c-0.264,-0.282 -0.771,-0.423 -1.522,-0.423c-0.761,0 -1.275,0.151 -1.536,0.458c-0.26,0.306 -0.391,0.923 -0.391,1.842c0,0.743 0.138,1.272 0.409,1.585c0.272,0.313 0.719,0.468 1.346,0.468ZM254.326,140.35l0,0.444c0,1.303 -0.264,2.244 -0.792,2.825c-0.532,0.581 -1.388,0.874 -2.571,0.874c-1.303,0 -2.219,-0.314 -2.74,-0.944c-0.525,-0.63 -0.785,-1.747 -0.785,-3.343l0,-2.543c0,-1.585 0.261,-2.694 0.785,-3.321c0.521,-0.63 1.444,-0.944 2.765,-0.944c1.109,0 1.902,0.246 2.385,0.736c0.482,0.493 0.722,1.3 0.722,2.427l0,0.535l-1.374,0l0,-0.197c0,-0.775 -0.141,-1.321 -0.423,-1.645c-0.285,-0.321 -0.768,-0.482 -1.458,-0.482c-0.764,0 -1.282,0.176 -1.546,0.525c-0.264,0.349 -0.398,1.141 -0.398,2.367l0,2.564c0,1.226 0.137,2.018 0.412,2.374c0.275,0.359 0.807,0.539 1.592,0.539c0.768,0 1.296,-0.158 1.581,-0.479c0.285,-0.321 0.43,-0.951 0.43,-1.888l0,-0.423l1.415,0l0,-0.001ZM244.217,130.776l0,-1.796l1.374,0l0,1.796l-1.374,0ZM244.217,144.302l0,-10.715l1.374,0l0,10.715l-1.374,0ZM242.111,133.587l0,11.095c0,1.307 -0.257,2.23 -0.775,2.765c-0.514,0.539 -1.398,0.807 -2.652,0.807c-1.064,0 -1.863,-0.183 -2.392,-0.553c-0.532,-0.366 -0.796,-0.923 -0.796,-1.666l0,-0.55l1.416,0c0,0.028 -0.003,0.07 -0.01,0.123c-0.007,0.056 -0.01,0.099 -0.01,0.127c0,0.447 0.141,0.772 0.419,0.972c0.278,0.201 0.729,0.299 1.356,0.299c0.803,0 1.353,-0.158 1.642,-0.475c0.289,-0.317 0.433,-1.06 0.433,-2.23l0,-1.775c-0.296,0.454 -0.655,0.792 -1.078,1.018c-0.423,0.222 -0.909,0.335 -1.462,0.335c-1.035,0 -1.786,-0.352 -2.247,-1.057c-0.461,-0.708 -0.69,-1.874 -0.69,-3.508l0,-1.042c0,-1.786 0.218,-3.043 0.659,-3.776c0.44,-0.732 1.18,-1.099 2.219,-1.099c0.585,0 1.095,0.12 1.532,0.356c0.437,0.236 0.824,0.602 1.169,1.102l0,-1.268l1.267,0ZM240.74,139.18l0,-1.092c0,-1.3 -0.165,-2.188 -0.493,-2.667c-0.324,-0.475 -0.888,-0.715 -1.687,-0.715c-0.669,0 -1.138,0.24 -1.409,0.715c-0.271,0.479 -0.408,1.346 -0.408,2.603l0,1.229c0,1.254 0.137,2.117 0.408,2.596c0.271,0.479 0.74,0.718 1.409,0.718c0.799,0 1.363,-0.239 1.687,-0.718c0.328,-0.478 0.493,-1.366 0.493,-2.669ZM228.634,132.255l2.155,-3.614l1.839,0l-2.899,3.614l-1.095,0ZM233.579,140.209c0,1.596 -0.26,2.709 -0.778,3.339c-0.521,0.63 -1.437,0.944 -2.751,0.944c-1.3,0 -2.212,-0.317 -2.74,-0.951c-0.525,-0.63 -0.789,-1.744 -0.789,-3.332l0,-2.54c0,-1.589 0.261,-2.698 0.785,-3.328c0.521,-0.63 1.444,-0.944 2.765,-0.944c1.307,0 2.219,0.314 2.733,0.94c0.518,0.624 0.775,1.736 0.775,3.332l0,2.54ZM227.979,137.669l0,2.561c0,1.222 0.141,2.015 0.423,2.374c0.282,0.356 0.831,0.535 1.645,0.535c0.81,0 1.36,-0.183 1.645,-0.546c0.285,-0.366 0.43,-1.152 0.43,-2.363l0,-2.561c0,-1.215 -0.141,-2.004 -0.423,-2.363c-0.282,-0.356 -0.835,-0.535 -1.652,-0.535c-0.814,0 -1.363,0.183 -1.645,0.546c-0.282,0.366 -0.423,1.148 -0.423,2.352ZM223.259,144.302l0,-15.597l1.374,0l0,15.597l-1.374,0ZM221.343,140.209c0,1.596 -0.26,2.709 -0.778,3.339c-0.521,0.63 -1.437,0.944 -2.751,0.944c-1.3,0 -2.212,-0.317 -2.741,-0.951c-0.525,-0.63 -0.789,-1.744 -0.789,-3.332l0,-2.54c0,-1.589 0.261,-2.698 0.785,-3.328c0.521,-0.63 1.444,-0.944 2.765,-0.944c1.307,0 2.219,0.314 2.733,0.94c0.518,0.624 0.775,1.736 0.775,3.332l0,2.54l0.001,0ZM215.743,137.669l0,2.561c0,1.222 0.141,2.015 0.423,2.374c0.282,0.356 0.831,0.535 1.645,0.535c0.81,0 1.36,-0.183 1.645,-0.546c0.285,-0.366 0.43,-1.152 0.43,-2.363l0,-2.561c0,-1.215 -0.141,-2.004 -0.423,-2.363c-0.282,-0.356 -0.835,-0.535 -1.652,-0.535c-0.814,0 -1.363,0.183 -1.645,0.546c-0.282,0.366 -0.423,1.148 -0.423,2.352ZM207.201,134.985c0.26,-0.539 0.606,-0.937 1.029,-1.198c0.423,-0.261 0.937,-0.391 1.55,-0.391c0.948,0 1.627,0.285 2.04,0.852c0.412,0.567 0.62,1.522 0.62,2.871l0,7.182l-1.353,0l0,-6.801c0,-1.057 -0.127,-1.8 -0.377,-2.223c-0.25,-0.423 -0.673,-0.634 -1.272,-0.634c-0.736,0 -1.257,0.268 -1.564,0.807c-0.31,0.535 -0.465,1.483 -0.465,2.846l0,6.006l-1.374,0l0,-6.802c0,-1.078 -0.12,-1.825 -0.363,-2.237c-0.24,-0.412 -0.652,-0.62 -1.236,-0.62c-0.747,0 -1.275,0.271 -1.589,0.814c-0.313,0.546 -0.468,1.49 -0.468,2.839l0,6.006l-1.374,0l0,-10.715l1.271,0l0,1.243c0.261,-0.482 0.599,-0.842 1.011,-1.078c0.412,-0.236 0.905,-0.356 1.476,-0.356c0.641,0 1.166,0.134 1.571,0.401c0.406,0.269 0.695,0.663 0.867,1.188ZM197.49,144.302l0,-15.597l1.374,0l0,15.597l-1.374,0ZM194.032,144.302l0,-0.972c-0.24,0.423 -0.56,0.726 -0.958,0.909c-0.401,0.183 -0.94,0.275 -1.62,0.275c-0.895,0 -1.564,-0.226 -2.004,-0.673c-0.44,-0.447 -0.659,-1.134 -0.659,-2.061l0,-1.434c0,-0.902 0.24,-1.585 0.722,-2.047c0.482,-0.465 1.187,-0.697 2.117,-0.697c0.577,0 1.06,0.074 1.448,0.225c0.387,0.152 0.708,0.387 0.954,0.704l0,-1.669c0,-0.916 -0.123,-1.514 -0.366,-1.797c-0.243,-0.282 -0.733,-0.423 -1.469,-0.423c-0.606,0 -1.035,0.106 -1.293,0.313c-0.254,0.212 -0.38,0.557 -0.38,1.039l0,0.507l-1.416,0l0,-0.486c0,-0.923 0.25,-1.595 0.754,-2.022c0.504,-0.426 1.3,-0.641 2.395,-0.641c1.184,0 2.001,0.225 2.452,0.676c0.451,0.451 0.676,1.275 0.676,2.473l0,7.798l-1.353,0l0,0.003ZM191.982,143.245c0.761,0 1.3,-0.169 1.617,-0.51c0.317,-0.342 0.475,-0.933 0.475,-1.779c0,-0.814 -0.134,-1.36 -0.398,-1.641c-0.264,-0.282 -0.771,-0.423 -1.522,-0.423c-0.761,0 -1.275,0.151 -1.536,0.458c-0.26,0.306 -0.391,0.923 -0.391,1.842c0,0.743 0.137,1.272 0.409,1.585c0.271,0.313 0.718,0.468 1.346,0.468ZM182.485,134.855l-1.12,0l0,-1.268l1.12,0l0,-2.6l1.374,0l0,2.6l3.487,0l0,1.268l-3.487,0l0,6.122c0,0.983 0.088,1.606 0.268,1.87c0.18,0.264 0.518,0.398 1.014,0.398c0.458,0 0.779,-0.123 0.969,-0.37c0.19,-0.25 0.285,-0.669 0.285,-1.261l0,-0.99l1.247,0l0,0.754c0,1.117 -0.208,1.916 -0.62,2.395c-0.412,0.479 -1.092,0.719 -2.04,0.719c-0.923,0 -1.567,-0.218 -1.941,-0.659c-0.37,-0.436 -0.557,-1.247 -0.557,-2.434l0,-6.544l0.001,0ZM177.368,144.302l0,-9.447l-1.31,0l0,-1.268l1.31,0l0,-1.906c0,-1.039 0.229,-1.796 0.687,-2.268c0.458,-0.472 1.194,-0.708 2.205,-0.708c0.166,0 0.419,0.011 0.754,0.032c0.035,0.007 0.06,0.011 0.074,0.011l0,1.226c-0.095,-0.014 -0.197,-0.025 -0.307,-0.032c-0.106,-0.007 -0.257,-0.01 -0.458,-0.01c-0.585,0 -0.997,0.134 -1.229,0.401c-0.236,0.268 -0.352,0.754 -0.352,1.462l0,1.793l2.346,0l0,1.268l-2.346,0l0,9.447l-1.374,0l0,-0.001ZM170.936,128.79c1.395,0 2.405,0.405 3.033,1.219c0.624,0.814 0.937,2.142 0.937,3.987l0,5.322c0,1.839 -0.314,3.16 -0.937,3.966c-0.627,0.806 -1.638,1.208 -3.033,1.208l-1.307,0c-1.405,0 -2.42,-0.402 -3.043,-1.208c-0.624,-0.807 -0.937,-2.127 -0.937,-3.966l0,-5.322c0,-1.846 0.313,-3.174 0.937,-3.987c0.623,-0.814 1.638,-1.219 3.043,-1.219l1.307,0ZM170.742,130.311l-0.93,0c-0.969,0 -1.635,0.246 -1.994,0.736c-0.363,0.493 -0.542,1.476 -0.542,2.948l0,5.322c0,1.466 0.18,2.445 0.542,2.938c0.359,0.49 1.025,0.736 1.994,0.736l0.93,0c0.969,0 1.635,-0.247 1.994,-0.736c0.363,-0.493 0.543,-1.472 0.543,-2.938l0,-5.322c0,-1.472 -0.18,-2.455 -0.543,-2.948c-0.359,-0.49 -1.025,-0.736 -1.994,-0.736ZM158.291,144.302l0,-0.972c-0.239,0.423 -0.56,0.726 -0.958,0.909c-0.401,0.183 -0.94,0.275 -1.62,0.275c-0.895,0 -1.564,-0.226 -2.004,-0.673c-0.44,-0.447 -0.659,-1.134 -0.659,-2.061l0,-1.434c0,-0.902 0.24,-1.585 0.722,-2.047c0.483,-0.465 1.187,-0.697 2.117,-0.697c0.577,0 1.06,0.074 1.448,0.225c0.387,0.152 0.708,0.387 0.954,0.704l0,-1.669c0,-0.916 -0.123,-1.514 -0.366,-1.797c-0.243,-0.282 -0.733,-0.423 -1.469,-0.423c-0.606,0 -1.035,0.106 -1.293,0.313c-0.254,0.212 -0.38,0.557 -0.38,1.039l0,0.507l-1.416,0l0,-0.486c0,-0.923 0.25,-1.595 0.754,-2.022c0.504,-0.426 1.3,-0.641 2.395,-0.641c1.184,0 2.001,0.225 2.452,0.676c0.451,0.451 0.676,1.275 0.676,2.473l0,7.798l-1.353,0l0,0.003ZM156.241,143.245c0.761,0 1.3,-0.169 1.617,-0.51c0.317,-0.342 0.475,-0.933 0.475,-1.779c0,-0.814 -0.134,-1.36 -0.398,-1.641c-0.264,-0.282 -0.771,-0.423 -1.522,-0.423c-0.761,0 -1.275,0.151 -1.536,0.458c-0.26,0.306 -0.391,0.923 -0.391,1.842c0,0.743 0.137,1.272 0.409,1.585c0.272,0.313 0.719,0.468 1.346,0.468ZM149.894,130.776l0,-1.796l1.374,0l0,1.796l-1.374,0ZM149.894,144.302l0,-10.715l1.374,0l0,10.715l-1.374,0ZM148.366,140.35l0,0.444c0,1.303 -0.264,2.244 -0.793,2.825c-0.532,0.581 -1.388,0.874 -2.571,0.874c-1.303,0 -2.219,-0.314 -2.74,-0.944c-0.525,-0.63 -0.785,-1.747 -0.785,-3.343l0,-2.543c0,-1.585 0.261,-2.694 0.785,-3.321c0.521,-0.63 1.444,-0.944 2.765,-0.944c1.109,0 1.902,0.246 2.385,0.736c0.482,0.493 0.722,1.3 0.722,2.427l0,0.535l-1.374,0l0,-0.197c0,-0.775 -0.141,-1.321 -0.423,-1.645c-0.286,-0.321 -0.768,-0.482 -1.458,-0.482c-0.764,0 -1.282,0.176 -1.546,0.525c-0.264,0.349 -0.398,1.141 -0.398,2.367l0,2.564c0,1.226 0.137,2.018 0.412,2.374c0.275,0.359 0.807,0.539 1.592,0.539c0.768,0 1.296,-0.158 1.581,-0.479c0.285,-0.321 0.43,-0.951 0.43,-1.888l0,-0.423l1.416,0l0,-0.001ZM138.207,144.302l0,-6.802c0,-1.071 -0.13,-1.818 -0.391,-2.233c-0.264,-0.416 -0.708,-0.624 -1.342,-0.624c-0.8,0 -1.367,0.271 -1.708,0.814c-0.342,0.546 -0.511,1.49 -0.511,2.839l0,6.006l-1.374,0l0,-10.715l1.271,0l0,1.243c0.268,-0.482 0.617,-0.842 1.053,-1.078c0.433,-0.236 0.954,-0.356 1.567,-0.356c0.997,0 1.716,0.285 2.152,0.859c0.437,0.574 0.655,1.528 0.655,2.864l0,7.182l-1.372,0l0,0.001ZM124.734,132.255l2.033,-3.614l1.832,0l2.032,3.614l-1.102,0l-1.835,-2.511l-1.856,2.511l-1.104,0ZM125.495,139.208l0,1.022c0,1.243 0.138,2.036 0.412,2.377c0.278,0.342 0.828,0.511 1.655,0.511c0.87,0 1.458,-0.127 1.772,-0.38c0.313,-0.257 0.472,-0.726 0.472,-1.413l0,-0.342l1.268,0l0,0.359c0,1.117 -0.275,1.92 -0.821,2.413c-0.546,0.49 -1.444,0.736 -2.687,0.736c-1.3,0 -2.212,-0.317 -2.741,-0.951c-0.525,-0.63 -0.789,-1.744 -0.789,-3.332l0,-2.54c0,-1.589 0.261,-2.698 0.785,-3.328c0.521,-0.63 1.444,-0.944 2.765,-0.944c1.307,0 2.219,0.314 2.733,0.94c0.518,0.624 0.775,1.736 0.775,3.332l0,1.539l-5.599,0l0,0.001ZM125.495,137.877l4.227,0l0,-0.673c0,-0.99 -0.151,-1.662 -0.451,-2.011c-0.299,-0.352 -0.856,-0.528 -1.666,-0.528c-0.806,0 -1.359,0.176 -1.659,0.532c-0.299,0.356 -0.451,1.025 -0.451,2.008l0,0.672ZM118.592,144.302l-1.374,0l0,-10.715l1.271,0l0,1.395c0.254,-0.542 0.585,-0.94 0.997,-1.198c0.408,-0.257 0.912,-0.387 1.511,-0.387c0.785,0 1.352,0.229 1.701,0.687c0.349,0.454 0.521,1.197 0.521,2.229l0,0.824l-1.268,0l0,-0.504c0,-0.75 -0.102,-1.279 -0.31,-1.589c-0.208,-0.31 -0.556,-0.465 -1.046,-0.465c-0.722,0 -1.236,0.218 -1.543,0.655c-0.306,0.437 -0.461,1.205 -0.461,2.303l0,6.765l0.001,0ZM109.874,139.208l0,1.022c0,1.243 0.138,2.036 0.412,2.377c0.278,0.342 0.828,0.511 1.656,0.511c0.87,0 1.458,-0.127 1.772,-0.38c0.313,-0.257 0.472,-0.726 0.472,-1.413l0,-0.342l1.268,0l0,0.359c0,1.117 -0.275,1.92 -0.821,2.413c-0.546,0.49 -1.444,0.736 -2.688,0.736c-1.3,0 -2.212,-0.317 -2.741,-0.951c-0.525,-0.63 -0.789,-1.744 -0.789,-3.332l0,-2.54c0,-1.589 0.261,-2.698 0.785,-3.328c0.521,-0.63 1.444,-0.944 2.765,-0.944c1.307,0 2.219,0.314 2.733,0.94c0.518,0.624 0.775,1.736 0.775,3.332l0,1.539l-5.599,0l0,0.001ZM109.874,137.877l4.227,0l0,-0.673c0,-0.99 -0.151,-1.662 -0.451,-2.011c-0.299,-0.352 -0.856,-0.528 -1.666,-0.528c-0.806,0 -1.359,0.176 -1.659,0.532c-0.299,0.356 -0.451,1.025 -0.451,2.008l0,0.672ZM104.196,144.302l0,-9.447l-1.31,0l0,-1.268l1.31,0l0,-1.906c0,-1.039 0.229,-1.796 0.687,-2.268c0.458,-0.472 1.194,-0.708 2.205,-0.708c0.165,0 0.419,0.011 0.754,0.032c0.035,0.007 0.06,0.011 0.074,0.011l0,1.226c-0.095,-0.014 -0.197,-0.025 -0.306,-0.032c-0.106,-0.007 -0.257,-0.01 -0.458,-0.01c-0.585,0 -0.997,0.134 -1.229,0.401c-0.236,0.268 -0.352,0.754 -0.352,1.462l0,1.793l2.346,0l0,1.268l-2.346,0l0,9.447l-1.375,0l0,-0.001ZM96.45,139.208l0,1.022c0,1.243 0.138,2.036 0.412,2.377c0.278,0.342 0.828,0.511 1.655,0.511c0.87,0 1.458,-0.127 1.772,-0.38c0.313,-0.257 0.472,-0.726 0.472,-1.413l0,-0.342l1.268,0l0,0.359c0,1.117 -0.275,1.92 -0.821,2.413c-0.546,0.49 -1.444,0.736 -2.688,0.736c-1.3,0 -2.212,-0.317 -2.741,-0.951c-0.525,-0.63 -0.789,-1.744 -0.789,-3.332l0,-2.54c0,-1.589 0.261,-2.698 0.786,-3.328c0.521,-0.63 1.444,-0.944 2.765,-0.944c1.307,0 2.219,0.314 2.733,0.94c0.518,0.624 0.775,1.736 0.775,3.332l0,1.539l-5.599,0l0,0.001ZM96.45,137.877l4.227,0l0,-0.673c0,-0.99 -0.151,-1.662 -0.451,-2.011c-0.299,-0.352 -0.856,-0.528 -1.666,-0.528c-0.806,0 -1.359,0.176 -1.659,0.532c-0.299,0.356 -0.451,1.025 -0.451,2.008l0,0.672ZM88.641,130.417l-2.557,0l0,6.298l2.557,0c1.251,0 2.054,-0.162 2.406,-0.49c0.356,-0.328 0.532,-0.955 0.532,-1.881l0,-1.98c0,-0.757 -0.166,-1.268 -0.5,-1.539c-0.335,-0.271 -1.145,-0.408 -2.438,-0.408ZM86.084,138.194l0,6.107l-1.522,0l0,-15.321l4.315,0c1.768,0 2.938,0.268 3.512,0.806c0.574,0.536 0.859,1.536 0.859,3.001l0,1.413c0,0.983 -0.194,1.729 -0.577,2.244c-0.384,0.511 -0.983,0.821 -1.793,0.923c0.757,0.151 1.314,0.482 1.67,0.99c0.356,0.511 0.532,1.237 0.532,2.18l0,3.765l-1.522,0l0,-3.064c0,-1.219 -0.194,-2.029 -0.581,-2.434c-0.388,-0.405 -1.148,-0.609 -2.275,-0.609l-2.618,0l0,-0.001ZM73.192,139.208l0,1.022c0,1.243 0.138,2.036 0.412,2.377c0.278,0.342 0.828,0.511 1.655,0.511c0.87,0 1.458,-0.127 1.772,-0.38c0.313,-0.257 0.472,-0.726 0.472,-1.413l0,-0.342l1.268,0l0,0.359c0,1.117 -0.275,1.92 -0.821,2.413c-0.546,0.49 -1.444,0.736 -2.688,0.736c-1.3,0 -2.212,-0.317 -2.741,-0.951c-0.525,-0.63 -0.789,-1.744 -0.789,-3.332l0,-2.54c0,-1.589 0.261,-2.698 0.785,-3.328c0.521,-0.63 1.444,-0.944 2.765,-0.944c1.307,0 2.219,0.314 2.733,0.94c0.518,0.624 0.775,1.736 0.775,3.332l0,1.539l-5.598,0l0,0.001ZM73.192,137.877l4.227,0l0,-0.673c0,-0.99 -0.151,-1.662 -0.451,-2.011c-0.299,-0.352 -0.856,-0.528 -1.666,-0.528c-0.806,0 -1.359,0.176 -1.659,0.532c-0.299,0.356 -0.451,1.025 -0.451,2.008l0,0.672ZM69.755,144.302l-1.272,0l0,-1.243c-0.342,0.493 -0.729,0.856 -1.162,1.088c-0.433,0.229 -0.948,0.345 -1.536,0.345c-1.039,0 -1.779,-0.366 -2.219,-1.099c-0.441,-0.733 -0.659,-1.994 -0.659,-3.783l0,-1.642c0,-1.638 0.229,-2.807 0.69,-3.515c0.461,-0.704 1.208,-1.057 2.247,-1.057c0.55,0 1.036,0.113 1.458,0.342c0.423,0.225 0.782,0.564 1.078,1.011l0,-6.044l1.374,0l0,15.597l0.001,0ZM68.381,138.092c0,-1.3 -0.162,-2.191 -0.49,-2.666c-0.328,-0.479 -0.891,-0.719 -1.687,-0.719c-0.669,0 -1.138,0.24 -1.409,0.719c-0.271,0.475 -0.409,1.346 -0.409,2.606l0,1.835c0,1.261 0.137,2.127 0.409,2.603c0.271,0.475 0.74,0.712 1.409,0.712c0.796,0 1.359,-0.24 1.687,-0.719c0.327,-0.476 0.49,-1.363 0.49,-2.656l0,-1.715ZM55.726,144.302l0,-15.597l1.374,0l0,15.597l-1.374,0ZM52.267,144.302l0,-0.972c-0.24,0.423 -0.56,0.726 -0.958,0.909c-0.401,0.183 -0.94,0.275 -1.62,0.275c-0.895,0 -1.564,-0.226 -2.004,-0.673c-0.44,-0.447 -0.659,-1.134 -0.659,-2.061l0,-1.434c0,-0.902 0.24,-1.585 0.722,-2.047c0.482,-0.465 1.187,-0.697 2.117,-0.697c0.577,0 1.06,0.074 1.448,0.225c0.387,0.152 0.708,0.387 0.954,0.704l0,-1.669c0,-0.916 -0.123,-1.514 -0.366,-1.797c-0.243,-0.282 -0.733,-0.423 -1.469,-0.423c-0.606,0 -1.035,0.106 -1.293,0.313c-0.254,0.212 -0.38,0.557 -0.38,1.039l0,0.507l-1.416,0l0,-0.486c0,-0.923 0.25,-1.595 0.754,-2.022c0.504,-0.426 1.3,-0.641 2.395,-0.641c1.184,0 2.001,0.225 2.452,0.676c0.451,0.451 0.676,1.275 0.676,2.473l0,7.798l-1.353,0l0,0.003ZM50.217,143.245c0.761,0 1.3,-0.169 1.617,-0.51c0.317,-0.342 0.475,-0.933 0.475,-1.779c0,-0.814 -0.134,-1.36 -0.398,-1.641c-0.264,-0.282 -0.771,-0.423 -1.522,-0.423c-0.761,0 -1.275,0.151 -1.536,0.458c-0.261,0.306 -0.391,0.923 -0.391,1.842c0,0.743 0.138,1.272 0.409,1.585c0.271,0.313 0.719,0.468 1.346,0.468ZM40.721,134.855l-1.12,0l0,-1.268l1.12,0l0,-2.6l1.374,0l0,2.6l3.487,0l0,1.268l-3.487,0l0,6.122c0,0.983 0.088,1.606 0.268,1.87c0.18,0.264 0.518,0.398 1.014,0.398c0.458,0 0.779,-0.123 0.969,-0.37c0.19,-0.25 0.285,-0.669 0.285,-1.261l0,-0.99l1.247,0l0,0.754c0,1.117 -0.208,1.916 -0.62,2.395c-0.412,0.479 -1.092,0.719 -2.04,0.719c-0.923,0 -1.567,-0.218 -1.941,-0.659c-0.37,-0.436 -0.557,-1.247 -0.557,-2.434l0,-6.544l0.001,0ZM36.994,130.776l0,-1.796l1.374,0l0,1.796l-1.374,0ZM36.994,144.302l0,-10.715l1.374,0l0,10.715l-1.374,0ZM35.184,139.931c0,1.645 -0.226,2.814 -0.68,3.515c-0.454,0.697 -1.201,1.046 -2.233,1.046c-0.556,0 -1.049,-0.113 -1.483,-0.335c-0.43,-0.226 -0.789,-0.564 -1.078,-1.018l0,5.135l-1.374,0l0,-14.688l1.293,0l0,1.275c0.342,-0.511 0.729,-0.881 1.159,-1.113c0.433,-0.236 0.941,-0.352 1.525,-0.352c1.032,0 1.768,0.366 2.208,1.099c0.44,0.733 0.662,1.994 0.662,3.783l0,1.653l0.001,0ZM29.71,138.092l0,1.716c0,1.293 0.162,2.18 0.486,2.656c0.324,0.479 0.887,0.719 1.691,0.719c0.676,0 1.152,-0.24 1.426,-0.722c0.275,-0.482 0.412,-1.345 0.412,-2.592l0,-1.835c0,-1.254 -0.137,-2.12 -0.412,-2.603c-0.275,-0.482 -0.75,-0.722 -1.426,-0.722c-0.803,0 -1.367,0.24 -1.691,0.719c-0.324,0.473 -0.486,1.364 -0.486,2.664ZM26.466,140.61l0,1.43c0,0.828 -0.233,1.444 -0.698,1.846c-0.465,0.405 -1.176,0.606 -2.135,0.606l-1.208,0c-0.99,0 -1.673,-0.18 -2.05,-0.539c-0.377,-0.356 -0.567,-1.014 -0.567,-1.973l0,-1.102l1.352,0l0,0.659c0,0.712 0.095,1.173 0.289,1.377c0.19,0.208 0.556,0.31 1.099,0.31l0.951,0c0.563,0 0.961,-0.102 1.187,-0.303c0.229,-0.204 0.341,-0.553 0.341,-1.057l0,-1.007c0,-0.757 -0.624,-1.24 -1.867,-1.437c-0.211,-0.035 -0.377,-0.064 -0.493,-0.085c-1.244,-0.212 -2.012,-0.454 -2.3,-0.722c-0.289,-0.268 -0.433,-0.708 -0.433,-1.328l0,-1.434c0,-0.835 0.233,-1.451 0.701,-1.853c0.465,-0.401 1.176,-0.602 2.131,-0.602l0.948,0c0.993,0 1.677,0.179 2.057,0.535c0.377,0.359 0.567,1.018 0.567,1.98l0,0.444l-1.352,0l0,-0.299c0,-0.521 -0.102,-0.884 -0.31,-1.088c-0.208,-0.201 -0.567,-0.303 -1.085,-0.303l-0.701,0c-0.564,0 -0.958,0.099 -1.184,0.292c-0.222,0.197 -0.334,0.543 -0.334,1.039l0,1.032c0,0.564 0.704,0.951 2.117,1.159c0.388,0.053 0.694,0.099 0.919,0.134c0.74,0.116 1.264,0.352 1.582,0.701c0.318,0.348 0.476,0.88 0.476,1.588ZM18.21,140.209c0,1.596 -0.26,2.709 -0.778,3.339c-0.521,0.63 -1.437,0.944 -2.751,0.944c-1.3,0 -2.212,-0.317 -2.74,-0.951c-0.525,-0.63 -0.789,-1.744 -0.789,-3.332l0,-2.54c0,-1.589 0.261,-2.698 0.785,-3.328c0.521,-0.63 1.444,-0.944 2.765,-0.944c1.307,0 2.219,0.314 2.733,0.94c0.518,0.624 0.775,1.736 0.775,3.332l0,2.54ZM12.61,137.669l0,2.561c0,1.222 0.141,2.015 0.423,2.374c0.282,0.356 0.831,0.535 1.645,0.535c0.81,0 1.36,-0.183 1.645,-0.546c0.285,-0.366 0.43,-1.152 0.43,-2.363l0,-2.561c0,-1.215 -0.141,-2.004 -0.423,-2.363c-0.282,-0.356 -0.835,-0.535 -1.652,-0.535c-0.813,0 -1.363,0.183 -1.645,0.546c-0.283,0.366 -0.423,1.148 -0.423,2.352ZM0,144.302l0,-15.322l1.522,0l0,6.657l6.108,0l0,-6.657l1.522,0l0,15.322l-1.523,0l0,-7.186l-6.107,0l0,7.186l-1.522,0Z" style="fill:#808184;fill-rule:nonzero;"/></g></svg>